<?xml version="1.0" encoding="UTF-8" standalone="no"?>
<!-- Created with Inkscape (http://www.inkscape.org/) -->

<svg
   xmlns:svg="http://www.w3.org/2000/svg"
   xmlns="http://www.w3.org/2000/svg"
   version="1.1"
   width="566"
   height="287"
   viewBox="0 0 566 287"
   id="Layer_1"
   xml:space="preserve"><defs
   id="defs7" />
<path
   d="m 91.75,67 2,4.75 L 95.5,76 97.75,80.75 99,84 v 1.5 h -2.25 l -5,1.25 -3.625,1.25 -4.25,1.125 -2.625,0.75 v -2.25 l 0.625,-1.875 -1.25,-2 L 79.5,85 v 2.25 l -1.125,0.25 v -2 l -1.25,-2.25 -0.75,-1.375 -0.625,-2.5 -2,-0.938 v 1.938 1.375 1.625 l -0.625,1.875 0.875,1.875 0.5,1 -1.375,0.75 L 68.5,86.5 64.75,83.375 62.25,81 60.75,80.25 57.25,79.125 55.625,79.875 58,81 l 1,0.875 v 2.25 l 1.25,2 2.875,1.75 2.5,0.75 2.75,1.25 0.25,1.375 -0.625,1.5 -5.25,0.625 -4.375,1.25 -2.75,0.5 -1.125,0.625 -1.875,0.875 -0.625,1.75 2.125,-0.75 h 1.625 l 1.125,0.75 h 3.75 2.5 L 64,97 l 3.625,-0.75 3.25,-0.375 3.25,0.75 0.5,3.875 v 3.25 l 0.875,1.875 1.375,1 0.5,1.5 0.125,1.75 0.875,-1 0.75,-2.375 0.625,-2.375 -0.25,-2.75 L 79.125,99 79,98.125 l 4,0.125 4.625,0.125 6.5,-1.25 6.125,-1.625 3.75,-2 4.375,-1.5 0.625,-1.75 0.75,-4.5 v -2.625 l -0.625,-3.875 2,1.125 3.625,3.125 4.875,3.75 3,2.375 3.75,3.25 5,3.75 4.25,3.5 5.25,4.5 4.25,3.25 4,3.375 2.5,1.25 4.25,1.625 5.875,2.375 4.75,1.875 4.875,1.5 h 2.75 v 1.25 l -2.25,2.25 -3.875,4.5 -4.25,4.75 -1.75,3.5 -3.125,4.625 -2.75,4.75 -0.875,4.25 0.875,2.875 2.625,2.75 4.375,1.5 h 5.125 l 6.625,1.75 8.625,1.125 5.375,0.625 h 2.875 l 1.375,2.125 -0.75,2.75 -2.125,2.75 -2.25,0.625 -1.625,1.75 -2.25,-0.625 -2,-1.125 L 181,168 l -2.25,0.25 1.875,2.125 1.125,1 c 0,0 0.5,1.375 0.875,1.625 0.375,0.25 1.5,1.25 1.875,1.25 0.375,0 2.25,0.75 2.25,0.75 l -0.625,1.5 -3,1.625 -3.375,0.625 -5,0.75 -2.25,0.875 h -2 l -2.25,1.5 0.375,1.625 h 2 l 1.625,0.75 3.25,0.875 h 3.5 l 3.875,-1 2,-1.125 2.25,0.625 -0.75,4.875 -0.875,5 -1,4.875 -1,2 -1.75,2 -1.25,1.5 -0.5,3.625 -0.25,2.125 -0.375,2.375 0.875,1.875 c 0,0 0.125,-2.375 0.5,-2.5 0.375,-0.125 1.625,-0.875 1.625,-0.875 l 2,-0.625 2.125,-2.625 1.375,-2.875 1.25,-4 0.375,-5 0.5,-6.625 0.875,-4.125 1.625,-1.75 0.625,-3.375 c 0,0 2.25,-2.5 2.375,-2.875 0.125,-0.375 2.25,-2.75 2.25,-2.75 l 2,-2.375 1.375,-0.5 2.5,1.875 2.5,2.125 4.5,3.125 4.125,0.375 2,-1 1.375,-0.25 1.5,0.25 1,0.5 v -3 l -2.875,-1.125 -2.75,-1.625 -3.875,-1.125 -4.625,-1.5 -2.75,-1.75 0.25,-3.375 0.25,-2.625 0.375,-1.875 -1,-3.5 -2.875,-2.875 -4.5,-2.125 -5.625,-2.125 -6.5,-1.125 -5.375,0.25 h -4.5 l -2.625,-0.625 3.5,-2.75 5.375,-5.375 4,-3.25 4.625,-4.125 2.75,-4 1.125,-2 c 0,0 3.875,1.5 4.5,1.5 0.625,0 4.625,1.125 4.625,1.125 l 3.375,2.375 7.625,4.375 6,2.875 8.5,4.25 9.875,4.125 8.75,4 9.875,3.5 8.75,3.375 13.75,4.375 8.25,2.5 6,1.5 8.5,2.25 7.5,1.625 7,1.125 5.875,1.375 7.75,2.625 9.875,3.5 8.875,3.75 9.625,3.75 8.25,2 7.875,3.75 12.125,4 12,4.375 12.125,4.75 9.25,3.25 6.5,2.25 9,3.25 9,3.75 11.875,4.375 10.75,4.25 4.875,1.625 9.5,3.875 8.625,3.625 10.625,3.75 9.875,4 11.125,4.75 8,2.75 6.125,3 6.875,3.125 7.125,3.375 2.625,1.375 2.75,2.5 1.75,2.5 3,3.75 1.25,3.25 v 0.75 3 l 1.25,-4 -1.25,-4.75 -1.75,-4 -3.5,-3.5 -3.5,-4.25 -2.499,-1.749 -5.417,-2.334 -5.75,-2.333 -8.833,-3.583 -7.501,-3.417 -8.499,-3.667 -5.917,-2.666 -4.5,-2.084 -6.333,-2.666 -7.167,-2.5 -7.5,-2.917 -7.667,-3 -6.166,-2.833 -7.584,-2.917 -7.666,-2.917 -6.667,-3.25 -6.417,-2.166 -6.25,-2.584 -9,-3.916 -7.75,-2.667 -7.5,-3.083 -9.083,-3.417 -6.583,-2.667 -5.25,-2.25 -4.084,-2.083 -6.333,-2.417 -9.5,-4.083 -7.25,-3.083 -9,-3.334 -6.167,-2.042 -5.292,-2.75 -8.625,-3 -9.875,-2.625 -7.375,-3.25 -8,-2.375 -7.625,-2.5 -7.125,-2.292 -10.417,-3.5 -8.75,-3.25 -6.916,-2.916 -6,-3.084 -5.417,-3.166 -4.75,-3.167 -4.333,-2.583 -5.167,-3.667 -5.833,-4.333 -4.75,-3.75 -3.75,-2.75 -3.167,-2.834 -5.917,-4.666 -7.25,-5.75 -3.917,-4.25 -4.916,-3.917 -7.833,-5.833 -6.333,-5 -6.583,-4.167 -6.833,-4.333 -4.5,-3.667 -6.083,-4.917 -6.417,-5 -6.75,-5.75 -7.333,-4.75 -6.417,-3.667 -3.417,-2.333 -8.25,-4.833 -5.917,-3.667 -3.917,-2.5 -4.833,-3 c 0,0 -4,-3.25 -4.417,-3.417 -0.417,-0.167 -6.333,-3.5 -6.333,-3.5 l -3.917,-2.75 -7.167,-3.333 -5.917,-2.917 -4.667,-1.25 -4.333,-1.417 -3.917,-1.667 -3.083,-0.5 -4.083,-0.5 H 59.167 L 56.333,9.75 54,9.167 H 50.5 L 46.083,9.584 42.667,11 l -2.75,2.083 -3.5,0.917 -5.833,1.25 -7.333,1.583 -5.918,1.167 -4.667,1.417 -3.25,0.417 -1.167,1 -0.75,1.25 v 1.583 l 1,3.167 4.167,2.25 5.417,0.75 5.834,2.166 5.417,1.5 c 0,0 5.5,1.667 5.667,1.917 0.167,0.25 6.583,3.083 6.583,3.083 L 46,41 l 6.5,3.083 4.25,2.583 6.167,3.083 5,2.167 4.333,2 6.25,2.167 3.667,1.917 3.75,2.417 3.25,2.917 1.75,2.333 L 91.75,67 z"
   id="path3" />
</svg>