<?xml version="1.0" encoding="UTF-8" standalone="no"?>
<!-- Created with Inkscape (http://www.inkscape.org/) -->

<svg
   xmlns:svg="http://www.w3.org/2000/svg"
   xmlns="http://www.w3.org/2000/svg"
   version="1.1"
   width="744.09448"
   height="1052.3622"
   id="svg2">
  <defs
     id="defs4">
    <clipPath
       id="clipPath3009">
      <rect
         width="1301.0768"
         height="888.93427"
         x="-436.38586"
         y="114.94062"
         id="rect3011"
         style="opacity:0.48919995;fill:#000000;fill-opacity:1;stroke:none" />
    </clipPath>
    <clipPath
       id="clipPath3015">
      <rect
         width="2537.5032"
         height="1567.7567"
         x="2957.7266"
         y="-765.91241"
         transform="scale(-1,1)"
         id="rect3017"
         style="opacity:0.48919995;fill:#000000;fill-opacity:1;stroke:none" />
    </clipPath>
  </defs>
  <g
     id="layer1">
    <path
       d="m 283.55367,199.24067 c -3.18609,0.98348 -3.43788,0.53265 -6.8056,0.29173 -3.36771,-0.24092 -8.47685,-0.77683 -13.33418,-1.73248 -4.85725,-0.95565 -11.88035,-3.0095 -15.75855,-3.99136 -3.87821,-0.98185 -5.07335,-1.08879 -7.5108,-1.89979 -2.43735,-0.81101 -4.37058,-1.86973 -7.07392,-2.95298 -2.70335,-1.08326 -6.3933,-2.79375 -9.14476,-3.54603 -2.75138,-0.75227 -3.87672,-0.41168 -7.24612,-0.93545 -3.36939,-0.52379 -9.67422,-1.55378 -12.96654,-2.20668 -3.29242,-0.65291 -4.24735,-1.406 -6.77374,-1.70805 -2.5263,-0.30206 -5.61457,0.39045 -8.27961,-0.0918 -2.66498,-0.48225 -5.27638,-1.44028 -7.47714,-2.75938 -2.2006,-1.3191 -4.03707,-3.74097 -5.48107,-5.0079 -1.44383,-1.26694 -2.25526,-2.09311 -3.17913,-2.59095 -0.92372,-0.49786 -1.42739,0.40238 -2.17554,-0.29467 -0.74816,-0.69704 -1.04572,-1.69523 -1.86498,-3.47014 -0.81925,-1.77492 -2.59198,-5.32012 -3.04632,-7.16944 -0.45419,-1.84933 -0.8794,-1.85224 0.39764,-3.61415 1.27689,-1.76192 4.60011,-4.66162 6.88325,-6.43128 2.28313,-1.76969 3.10019,-2.99531 6.74667,-4.13317 3.64647,-1.13786 10.64588,-2.13255 14.78317,-2.58504 4.13718,-0.45251 6.62144,-0.22135 9.96309,-0.12138 3.34185,0.0999 6.74123,-0.086 10.0699,0.72037 3.32875,0.80646 7.66755,3.40801 9.63685,4.05392 1.96909,0.64591 1.36545,-0.24488 1.96422,-0.24877 0.5986,-0.003 0.79283,-0.28833 1.59651,0.22545 0.80386,0.51376 1.3649,1.6712 3.05669,2.74902 1.6918,1.07781 4.60536,2.66655 7.02255,3.67225 2.41707,1.00571 4.86265,1.64047 7.42372,2.33847 2.56115,0.69801 3.95322,1.63197 7.93169,1.84651 3.97845,0.21454 8.44684,-3.89896 15.75116,-0.56939 7.30424,3.3296 21.05127,14.43476 25.85245,19.5341 4.80129,5.09933 1.3167,6.63536 1.48898,9.50495 0.17218,2.86958 1.92724,5.09601 -0.46125,7.61368 -2.3886,2.51763 -8.80319,4.52638 -11.98929,5.50988 z"
       id="path3019"
       style="fill:#000000;stroke:none" />
    <path
       d="m 432.00049,213.4033 c 1.30783,0.80436 7.3913,8.86629 8.52936,9.90875 1.13806,1.04248 5.09457,4.81897 6.82838,6.25482 1.73383,1.43585 2.59354,1.57528 3.54623,2.33681 0.95269,0.76153 1.19402,1.08533 2.13665,2.20577 0.94262,1.12046 2.31309,3.23371 3.51166,4.50805 1.19858,1.27433 2.75186,2.385 3.64269,3.09846 0.89084,0.71347 0.92201,0.88119 1.69695,1.17806 0.77494,0.29686 1.83347,0.0321 2.85772,0.56671 1.02426,0.53454 1.52546,1.48053 3.10851,2.54702 1.58307,1.0665 4.94391,2.98526 6.36737,3.83681 1.42346,0.85158 1.38249,0.59009 2.17324,1.27251 0.79072,0.68242 1.75436,2.06905 2.51848,2.77653 0.76414,0.70747 1.36516,0.82868 2.0402,1.44411 0.67504,0.61545 1.36504,1.63009 1.98433,2.22508 0.61929,0.59503 1.4395,0.82003 1.71624,1.33039 0.27674,0.51038 -0.32344,0.89661 -0.30265,1.27652 0.0208,0.37995 0.56341,0.38988 0.42041,0.87542 -0.14299,0.48552 -1.08954,0.84284 -1.17805,1.69694 -0.0885,0.85412 0.26249,2.30073 0.69053,3.00803 0.42803,0.70734 1.37714,0.47943 1.65836,0.8734 0.28122,0.394 -0.15505,-0.008 -0.34124,0.97186 -0.18613,0.98026 -0.14267,3.49744 -0.77291,4.8959 -0.63022,1.39847 -2.36467,2.16913 -2.85168,3.14711 -0.48703,0.978 -0.0349,1.56672 0.13704,2.30426 0.17196,0.73757 0.98722,1.27366 0.87944,2.05547 -0.10775,0.78182 -0.81252,0.89955 -1.44415,2.0402 -0.63161,1.14064 -1.90671,3.38887 -2.33479,4.78416 -0.42809,1.3953 -1.00589,2.67832 -0.18488,3.42846 0.82099,0.75013 2.32158,-0.25024 3.16037,-0.70981 0.83878,-0.4596 1.20481,-1.22725 1.61575,-1.90717 0.41094,-0.6799 0.40922,-1.41212 0.81551,-2.11534 0.40628,-0.70323 1.0588,-1.54593 1.59646,-2.05949 0.53766,-0.51356 0.9204,-0.7585 1.57917,-0.97388 0.65878,-0.21536 1.46897,-0.21185 2.28497,-0.28938 0.81601,-0.0775 1.99687,-0.43857 2.60893,-0.17566 0.61203,0.26293 0.44099,0.3626 0.17362,1.37098 -0.26737,1.00838 -1.16954,2.98551 -1.74476,4.55467 -0.57521,1.56915 -1.29543,3.62034 -1.70618,4.85932 -0.41077,1.23898 -0.63136,2.14362 -0.75764,2.57236 -0.12623,0.42873 0.8967,0.96984 1.50603,0.89267 0.60932,-0.0772 1.45713,0.0993 1.65636,-0.36455 0.19921,-0.46375 0.58583,-1.67041 1.19532,-2.78255 0.60948,-1.11214 1.70328,-2.6403 2.45056,-3.87018 0.74726,-1.22987 1.11507,-2.63423 2.03216,-3.50765 0.91709,-0.8734 2.45419,-0.85027 3.21624,-1.49075 0.76202,-0.64049 0.5102,-1.58571 1.12017,-2.15394 0.60994,-0.56823 1.88321,-0.90607 2.34084,-1.07034 0.45761,-0.16428 0.28594,-0.61569 0.32394,0.1137 0.0379,0.72945 -0.0205,2.8898 -0.10775,4.03778 -0.0872,1.14799 -0.32666,2.10459 -0.41439,2.83841 -0.0877,0.73386 -0.29605,0.9622 -0.11182,1.56191 0.18432,0.59971 0.87197,1.38569 1.16479,1.86455 0.29284,0.47889 0.0595,0.94477 0.59205,1.00843 0.53253,0.0636 1.40074,-0.22543 1.92242,-0.70779 0.52171,-0.48234 0.49651,-0.75789 0.98714,-1.98232 0.49064,-1.22442 1.3724,-4.01332 1.95297,-5.3549 0.58056,-1.34158 0.9102,-2.07125 1.51928,-2.66882 0.60908,-0.59755 0.90694,-0.37276 1.92244,-0.70779 1.01548,-0.33503 2.75961,-0.81368 4.16881,-1.30185 1.40918,-0.48817 3.15742,-1.09447 4.28256,-1.62581 1.12512,-0.53133 1.68787,-0.79353 2.43528,-1.54663 0.7474,-0.75307 1.67375,-1.85088 1.95699,-2.87902 0.28322,-1.02813 -0.39771,-2.09944 -0.36656,-2.89429 0.0312,-0.79484 0.61119,-1.06831 0.54944,-1.77211 -0.0617,-0.70381 -0.55885,-1.5754 -0.89872,-2.2078 -0.33989,-0.6324 -0.97576,-0.80718 -1.12621,-1.55989 -0.1505,-0.75269 0.47085,-1.81711 0.28135,-2.66678 -0.18954,-0.84967 -0.95393,-1.42566 -1.35571,-2.14992 -0.4018,-0.72427 -0.56205,-1.39557 -1.05105,-2.18851 -0.489,-0.79293 -1.09445,-1.9236 -1.87059,-2.54903 -0.77611,-0.62543 -1.44168,-0.27166 -2.61092,-1.0623 -1.16924,-0.79064 -3.27481,-2.51239 -4.32919,-3.63063 -1.05437,-1.11822 -0.90626,-1.95819 -1.92845,-3.00601 -1.02222,-1.04782 -3.03773,-2.4006 -4.11899,-3.19293 -1.08125,-0.79233 -1.30751,-0.96816 -2.36413,-1.55787 -1.05664,-0.58972 -2.65712,-1.23583 -3.96464,-1.97429 -1.30752,-0.73843 -2.83109,-1.78246 -3.87019,-2.45056 -1.03909,-0.66807 -1.66513,-1.25035 -2.36413,-1.55787 -0.69903,-0.30751 -0.98638,0.28612 -1.73353,-0.24476 -0.74715,-0.53089 -2.08557,-1.77426 -2.5185,-2.77654 -0.43293,-1.00224 0.26557,-1.99126 0.10979,-2.79982 -0.15584,-0.80858 -0.5703,-1.26439 -1.01246,-1.88385 -0.44216,-0.61946 -1.06736,-1.10166 -1.62178,-1.80667 -0.55444,-0.705 -1.00199,-0.81402 -1.69896,-2.41599 -0.69697,-1.60197 -2.09621,-4.53773 -2.44937,-7.11898 -0.35319,-2.58124 2.31039,-4.80776 0.36776,-8.09485 -1.94261,-3.28709 -6.00148,-8.46792 -11.00523,-9.90473 -5.00375,-1.4368 -13.58287,1.72027 -16.29944,2.06433 -2.71657,0.34406 -18.29902,2.1628 -18.90835,2.23996 -0.60933,0.0772 -12.8204,4.07432 -11.93368,4.76167 0.88673,0.68739 4.01253,3.31984 5.32033,4.1242 z"
       id="path3021"
       style="fill:#000000;stroke:none" />
    <path
       d="m 273.0905,198.61073 c -2.84002,-0.22714 -6.35899,0.60412 -10.31743,1.2553 -3.95835,0.65122 -9.61903,1.7251 -13.41692,2.64933 -3.79799,0.92422 -7.00466,1.67401 -9.34027,2.88861 -2.33571,1.21461 -3.10971,1.57914 -4.3043,4.20695 -1.19457,2.6278 -2.09651,7.60528 -2.60699,10.99598 -0.51056,3.39069 -0.41181,7.34584 -0.44317,9.26204 -0.0311,1.91619 -0.0667,1.61395 0.25586,2.21129 0.32303,0.59737 1.5356,0.33897 1.51362,1.06124 -0.0222,0.72223 -1.23377,0.44739 -1.60365,1.90096 -0.3699,1.45356 -0.64581,4.9115 -0.53186,6.49053 0.11417,1.57904 1.00726,1.73139 1.1974,2.73601 0.19005,1.0046 -0.23075,1.48199 -0.0842,3.14697 0.14585,1.6649 0.68168,5.59975 0.95804,6.8127 0.27646,1.21295 0.44738,-0.59688 0.54836,-0.20253 0.10142,0.39433 -0.44947,0.52033 -0.12585,1.85355 0.32388,1.33325 1.59427,4.96862 2.04293,6.03814 0.44876,1.06952 0.53817,-0.52271 0.56026,0.16701 0.0223,0.68975 -0.47789,2.40438 -0.44196,3.52833 0.0361,1.12396 0.50815,2.38809 0.655,3.12329 0.14683,0.7352 0.44272,0.21432 0.22627,1.28745 -0.21659,1.07313 -0.52525,3.53553 -1.50316,5.042 -0.97789,1.50644 -3.11631,2.55828 -4.13721,3.64672 -1.02081,1.08844 -1.50312,2.01332 -1.9436,2.83662 -0.44046,0.82329 -0.97819,1.49346 -0.67403,2.05611 0.30425,0.56263 0.79137,0.16628 1.65697,-0.23805 0.86578,-0.40426 2.60241,-1.76951 3.44559,-2.1449 0.84308,-0.37539 0.95283,-0.0614 1.47815,-0.0473 0.52522,0.0141 0.45656,-0.10769 1.66881,0.13144 1.21223,0.23913 3.66558,0.96091 5.59035,1.30057 1.9248,0.33964 3.95397,0.73596 5.94215,0.7344 1.98821,-0.002 3.94152,-0.11691 5.89478,-0.7437 1.95332,-0.62641 4.26406,-2.00528 5.639,-2.95501 1.37494,-0.94973 1.67232,-1.49445 2.50387,-2.66962 0.83154,-1.17518 2.01978,-2.88725 2.45063,-4.33252 0.43086,-1.44527 -0.004,-3.0191 0.0545,-4.0708 0.0586,-1.05174 0.2615,-1.45457 0.29834,-2.22907 0.0372,-0.77444 0.041,-1.62926 -0.077,-2.40196 -0.11788,-0.77269 -0.64173,-0.75962 -0.62532,-2.19945 0.0164,-1.43985 1.22448,-3.45495 0.7225,-6.31169 -0.5019,-2.85675 -2.63418,-7.18885 -3.66318,-10.4252 -1.029,-3.23637 -2.63381,-6.88609 -2.5073,-8.98257 0.12634,-2.09648 1.39853,-0.56854 3.1115,-1.02447 1.71299,-0.45592 5.10085,-1.33416 7.15857,-1.70897 2.05762,-0.37484 3.3165,-0.38368 5.16165,-0.53528 1.84506,-0.15165 3.58912,-0.97031 5.9066,-0.37418 2.31756,0.59611 4.31477,3.08014 7.52098,3.82812 3.20611,0.74796 9.41697,0.46895 11.30037,0.56276 1.88339,0.0938 1.77787,-8.01011 0.0854,-8.88068 -1.69252,-0.87055 -9.6146,-14.33442 -11.24335,-16.10097 -1.62873,-1.76657 -7.05822,-8.35855 -9.77241,-10.5994 -2.71408,-2.24084 -3.34607,-2.34886 -6.18609,-2.57617 z"
       id="path3023"
       style="fill:#000000;stroke:none" />
    <path
       d="m 509.64254,209.84721 c 1.74307,-1.40827 2.839,-3.65493 3.32585,-5.84227 0.59879,-2.69021 -0.0177,-5.56106 -0.65662,-8.24201 -1.02978,-4.32075 -3.04656,-8.36673 -5.04688,-12.33259 -1.76825,-3.50575 -4.821,-6.3606 -6.1153,-10.06759 -0.75977,-2.17606 -0.1893,-4.65741 -0.86879,-6.85987 -1.44487,-4.68333 -4.02078,-8.98303 -6.69197,-13.09229 -3.44729,-5.30321 -7.59009,-10.15561 -11.93591,-14.75144 -4.05562,-4.28892 -8.41006,-8.33593 -13.12249,-11.89064 -5.26866,-3.97428 -11.09606,-7.15791 -16.81283,-10.45523 -6.04752,-3.48809 -11.93808,-7.41801 -18.47956,-9.8569 -5.42777,-2.02365 -11.20897,-3.04765 -16.94507,-3.85577 -2.44968,-0.34512 -4.938,-0.31816 -7.40991,-0.4168 -4.72281,-0.18847 -9.44941,-0.37984 -14.17576,-0.33433 -3.85464,0.0371 -7.71041,0.19893 -11.55381,0.49525 -4.27745,0.32979 -8.50376,1.27222 -12.79113,1.42639 -3.11356,0.11197 -6.22692,-0.5012 -9.33957,-0.36601 -5.56491,0.2417 -11.09076,1.14231 -16.57804,2.0996 -8.10863,1.4146 -16.22603,2.98097 -24.10107,5.37571 -4.29353,1.30564 -8.49829,2.94522 -12.54724,4.88046 -4.50572,2.15359 -8.80683,4.73533 -12.99578,7.45419 -6.44205,4.18123 -12.79047,8.57237 -18.60821,13.58603 -3.45406,2.97666 -5.72571,7.3461 -9.6091,9.73577 -0.88765,0.54623 -1.98624,0.63255 -2.97644,0.95778 -3.41177,1.1206 -7.54368,1.02329 -10.21489,3.42342 -2.07481,1.86424 -3.06711,4.8484 -3.48973,7.60551 -0.15521,1.01256 0.68345,2.06853 0.38613,3.04883 -0.47376,1.56206 -2.81301,2.11466 -3.21028,3.69792 -0.64191,2.55817 1.2935,5.11873 1.75168,7.71611 0.11119,0.63051 0.3791,1.28026 0.24132,1.90552 -0.1958,0.88863 -1.31979,1.41261 -1.44944,2.31327 -0.43343,3.01132 1.21247,6.01586 2.4681,8.78701 1.87909,4.14711 5.14063,7.52436 7.45165,11.4472 2.57126,4.36458 4.04442,9.40105 7.12139,13.42512 1.76767,2.31177 4.63613,3.63276 6.37069,5.96947 1.04995,1.41444 1.56648,3.15571 2.34243,4.73715 1.66778,3.39902 2.2639,7.56641 4.97197,10.21239 3.55811,3.47657 8.95316,4.3572 13.56589,6.21982 5.30998,2.14419 10.5941,4.56877 16.20953,5.69142 14.49349,2.89757 29.51761,1.6 44.26894,2.5249 3.97256,0.24908 7.9335,0.7456 11.91327,0.81448 6.94321,0.12013 13.89004,-0.27088 20.82097,-0.7009 5.37118,-0.33324 10.74896,-0.71149 16.07878,-1.45553 6.2258,-0.86913 12.24461,-3.37245 18.52931,-3.50841 3.12142,-0.0675 6.14917,1.24187 9.26969,1.3429 8.19987,0.26548 16.43666,-0.63512 24.53547,-1.94576 2.73602,-0.44276 5.37271,-1.36613 8.07308,-1.99051 4.32039,-0.99897 8.93675,-1.04019 13.0033,-2.80851 2.91508,-1.26759 5.19355,-3.6676 7.82923,-5.44457 2.1843,-1.47265 4.44264,-2.83414 6.61602,-4.32288 1.44174,-0.98757 2.71977,-2.22992 4.25952,-3.05638 1.68294,-0.90332 3.79241,-0.93825 5.35709,-2.03373 1.41123,-0.98804 2.37915,-2.50802 3.37662,-3.91261 1.3494,-1.90015 1.67546,-4.59731 3.49229,-6.05695 1.11607,-0.89664 2.98202,-0.39344 4.09561,-1.29314 z"
       id="path3025"
       style="fill:#000000;stroke:none" />
  </g>
</svg>
